<?xml version="1.0" encoding="utf-8"?>
<!-- Generator: Adobe Illustrator 21.0.2, SVG Export Plug-In . SVG Version: 6.00 Build 0)  -->
<svg version="1.1" id="Layer1" xmlns="http://www.w3.org/2000/svg" xmlns:xlink="http://www.w3.org/1999/xlink" x="0px" y="0px"
	 viewBox="0 0 1024 1024" style="enable-background:new 0 0 1024 1024;" xml:space="preserve">
<style type="text/css">
	.st0{fill:none;stroke:#0F0F14;stroke-width:18;stroke-linecap:round;stroke-linejoin:round;stroke-miterlimit:10;}
	.st1{fill:#EC7123;}
	.st2{fill:#EE1C4E;}
	.st3{fill:#48A392;}
	.st4{fill:#4752A4;}
</style>
<g>
	<path class="st0" d="M304.7,400.1l-8.2-56c-22.2,6.3-45.3,10.3-69.4,11.9c6.3-33.2,10.7-58.3,13-75.4l-58.6-8.6
		c-5.4,32.9-11.3,63.2-17.6,91c-20.6,2.2-52,3.9-94.3,5.1l6.8,57.7c15.6-0.4,40.2-1.6,73.8-3.5c-24.1,94.5-50.7,172.3-79.8,233.4
		l57.7,22.9c29.2-60.5,57.8-148.2,85.7-263.1C243.1,412.6,273.4,407.5,304.7,400.1z"/>
	<path class="st0" d="M921.5,493.8c-22-20.2-50.7-30.3-86.1-30.3c-15.9,0-31.7,2.3-47.4,6.8c28.9-28.5,64.8-65.9,107.5-112.2
		l-19.8-48c-69.9,12-133.8,18.7-191.5,20.1l8.2,56.4c34.5-1,67.5-3.3,98.9-6.8c-53.6,56.5-110.8,113.1-171.6,169.8
		c-35.9-40.9-74.7-80.3-116.4-118.1c-1-1-1.5-2.6-1.5-4.6c0-3.2,0.8-5.7,2.4-7.3c47.2-45,97.7-101.2,151.6-168.8L606.3,212
		c-58.5,75.4-112.5,135.4-162.2,180c-9.6,8.7-14.5,20-14.7,33.8c0,0,0,0.1,0,0.1c-79.5,1-145,11.4-196.5,31l17.6,54.7
		c44.5-18.1,103.5-27.7,176.9-28.8c0.3,42.3,3.6,82.2,9.9,119.6c-27.1,5.4-51,8.1-71.7,8.1c-48.5,0-91-13.4-127.6-40.3L207,619.6
		c46.9,31.9,97.3,47.8,151.4,47.8c0.2,0,0.5,0,0.7,0c-11.7,16.3-17.6,33.3-17.6,51.1c0,24.1,11.2,45.7,33.6,64.8
		C397.6,802.4,442.9,812,511,812c37.2,0,79.7-3.2,127.6-9.5l-10.8-59.3c-56.1,7.5-100.6,11.2-133.3,11.2
		c-61.6,0-92.3-13.4-92.3-40.3c0-8.2,2.8-15.1,8.4-20.7c5.6-5.6,18.7-14.8,39.3-27.5c20.6-12.8,47.1-24.9,79.4-36.3
		c19.1-6.7,39.7-12.8,61.6-18.2c7.8,9.3,15.1,18.4,21.9,27.3l48.9-38.8c0,0,0,0,0,0c18.7-22.5,43.1-41.4,73.4-56.7
		c30.3-15.4,59.8-23,88.6-23c26,0,44.2,5.1,54.7,15.2c10.4,10.1,15.6,21.8,15.6,35c0,44.1-50.3,66.1-151,66.1
		c-11.3,0-22.9-0.3-34.8-0.9l20.7,59.1c7.3,0.3,14.7,0.4,22,0.4c69.1,0,120.2-10.8,153.5-32.4s49.9-51.5,49.9-89.7
		C954.5,540.4,943.5,514,921.5,493.8z M496.5,578.6c-3.8-21.6-6.1-46.5-6.7-74.8c21,20.3,40.3,40,57.9,58.9
		C532.3,567.3,515.2,572.6,496.5,578.6z"/>
</g>
<g>
	<g>
		<g>
			<path class="st1" d="M304.6,400.1c-31.3,7.3-61.6,12.5-90.8,15.4c-27.9,114.9-56.5,202.6-85.7,263.1l-57.7-22.9
				c29.1-61.1,55.7-138.9,79.8-233.4c-33.6,1.9-58.3,3.1-73.8,3.5l-6.8-57.7c42.3-1.2,73.8-2.9,94.3-5.1c6.3-27.8,12.2-58.1,17.6-91
				l58.6,8.6c-2.4,17-6.7,42.2-13,75.4c24.1-1.6,47.2-5.6,69.4-11.9L304.6,400.1z M449.8,658.4c-34.7,6-65.2,9-91.5,9
				c-54.1,0-104.5-15.9-151.4-47.8l30.9-49.4c36.6,26.9,79.1,40.3,127.6,40.3c22.3,0,48.4-3.2,78.2-9.5L449.8,658.4z M430.8,482.8
				c-75.1,0.9-135.2,10.5-180.5,28.9L232.7,457c51.9-19.8,117.9-30.2,198.1-31.1V482.8z"/>
		</g>
	</g>
	<g>
		<path class="st2" d="M638.5,802.5c-47.9,6.3-90.4,9.5-127.6,9.5c-68.2,0-113.5-9.6-135.9-28.6c-22.4-19.1-33.6-40.7-33.6-64.8
			c0-41.6,32.1-79,96.3-112.4c-7.1-40.4-10.6-83.7-10.6-129.8c0-22.3,1-41.8,2.9-58.4H492c-1.6,26.3-2.4,49.6-2.4,69.9
			c0,35,2.3,65.2,6.8,90.8c52-16.7,91.3-27.9,117.9-33.5l24.2,56c-40.5,7.6-77,17.2-109.3,28.5c-32.3,11.4-58.8,23.5-79.4,36.3
			c-20.6,12.8-33.8,22-39.3,27.5c-5.6,5.6-8.4,12.5-8.4,20.7c0,26.9,30.8,40.3,92.3,40.3c32.8,0,77.2-3.7,133.3-11.2L638.5,802.5z"
			/>
	</g>
	<g>
		<g>
			<path class="st3" d="M788,470.3c15.7-4.6,31.5-6.8,47.4-6.8c35.4,0,64.1,10.1,86.1,30.3c22,20.2,32.9,46.6,32.9,79.2
				c0,38.2-16.6,68.1-49.9,89.7S820,695.1,751,695.1c-7.3,0-14.7-0.1-22-0.4l-20.7-59.1c11.9,0.6,23.5,0.9,34.8,0.9
				c100.6,0,151-22,151-66.1c0-13.2-5.2-24.9-15.6-35c-10.4-10.1-28.6-15.2-54.7-15.2c-28.8,0-58.3,7.7-88.6,23
				c-30.3,15.4-54.7,34.3-73.4,56.7l-45.6-46.9c62.1-57.9,120.5-115.6,175.2-173.2c-31.4,3.5-64.4,5.8-98.9,6.8l-8.2-56.4
				c57.7-1.3,121.6-8,191.5-20.1l19.8,48C852.8,404.4,816.9,441.8,788,470.3z"/>
		</g>
	</g>
	<g>
		<path class="st4" d="M661.7,599.9l-48.9,38.8c-40.8-53-97.8-113.1-171-180c-8.4-8.1-12.6-18.7-12.6-31.7
			c0-14.2,4.9-25.9,14.8-34.8c49.7-44.7,103.7-104.7,162.2-180l49.6,38.8c-53.9,67.6-104.5,123.9-151.6,168.8
			c-1.6,1.6-2.4,4-2.4,7.3c0,2.1,0.5,3.6,1.5,4.6C561.9,484.6,614.7,540.7,661.7,599.9z"/>
	</g>
</g>
</svg>
